<svg xmlns="http://www.w3.org/2000/svg" viewBox="0 0 15.53 13.58"><defs><style>.cls-1{fill:#f59590;}.cls-2{fill:#f27b74;}.cls-3{fill:#f8b3ad;}.cls-4{fill:none;stroke:#9b393b;stroke-miterlimit:10;stroke-width:0.25px;}</style></defs><title>Asset 8</title><g id="Layer_2" data-name="Layer 2"><g id="图层_1" data-name="图层 1"><path class="cls-1" d="M7.83,3.36s-3.59-3.71-6-.67c0,0-1.29,1.21.59,4.58a14.75,14.75,0,0,0,4.79,5,12.41,12.41,0,0,0,6.21-4.71s2.79-3.91,0-5.79C13.37,1.73,12.08.31,7.83,3.36Z"/><path class="cls-2" d="M12.38,1.4S15,4.07,10.28,8A18,18,0,0,1,5,10.59l.87.82a3.33,3.33,0,0,0,.56.43l.79.51s6.94-2.82,7.32-7.79C14.57,4.56,15.06,1.4,12.38,1.4Z"/><rect class="cls-3" x="3.24" y="2.4" width="0.4" height="0.87" rx="0.2" transform="translate(3.02 -1.6) rotate(45)"/><path class="cls-3" d="M2.33,3.72a.43.43,0,0,1,.45-.29.29.29,0,0,1,.2.35s-.29,1.29.38,1.65c0,0,.19.26,0,.38a.37.37,0,0,1-.52-.07A1.85,1.85,0,0,1,2.33,3.72Z"/><path class="cls-4" d="M6.74,13.46s7.47-2.55,8.63-8.74c0,0,.67-4.74-3.76-4.26,0,0-1.26-.16-3.75,1.86"/><path class="cls-4" d="M7.85,2.49S5.24-1.45,1.7.84C1.7.84-1,2.52.69,6c0,0,2.06,4.78,6.53,6.67"/></g></g></svg>